<svg width="24" height="24" viewBox="0 0 24 24" fill="none" xmlns="http://www.w3.org/2000/svg">
<path d="M8.4001 13.1996C8.4001 12.5369 8.93736 11.9996 9.6001 11.9996C10.2628 11.9996 10.8001 12.5369 10.8001 13.1996V19.1996C10.8001 19.8624 10.2628 20.3996 9.6001 20.3996C8.93736 20.3996 8.4001 19.8624 8.4001 19.1996V13.1996Z" fill="white"/>
<path d="M13.2001 7.19961C13.2001 6.53687 13.7374 5.99961 14.4001 5.99961C15.0628 5.99961 15.6001 6.53687 15.6001 7.19961V19.1996C15.6001 19.8624 15.0628 20.3996 14.4001 20.3996C13.7374 20.3996 13.2001 19.8624 13.2001 19.1996V7.19961Z" fill="white"/>
<path d="M18.0001 4.79961C18.0001 4.13687 18.5374 3.59961 19.2001 3.59961C19.8628 3.59961 20.4001 4.13687 20.4001 4.79961V19.1996C20.4001 19.8624 19.8628 20.3996 19.2001 20.3996C18.5374 20.3996 18.0001 19.8624 18.0001 19.1996V4.79961Z" fill="white"/>
<path d="M3.6001 9.59961C3.6001 8.93687 4.13736 8.39961 4.8001 8.39961C5.46284 8.39961 6.0001 8.93687 6.0001 9.59961V19.1996C6.0001 19.8624 5.46284 20.3996 4.8001 20.3996C4.13736 20.3996 3.6001 19.8624 3.6001 19.1996V9.59961Z" fill="white"/>
</svg>
