<svg width="24" height="24" viewBox="0 0 24 24" fill="none" xmlns="http://www.w3.org/2000/svg">
<path d="M22 8C22 7.522 21.621 7 21 7H8C7.38 7 7 7.519 7 8V21C7 21.621 7.52 22 8 22H21C21.478 22 22 21.621 22 21V8ZM6 6H19.25C19.664 6 20 5.664 20 5.25C20 4.836 19.664 4.5 19.25 4.5H5.5C4.97 4.5 4.5 4.97 4.5 5.5V19.25C4.5 19.664 4.836 20 5.25 20C5.664 20 6 19.664 6 19.25V6ZM3.5 3.5H17.25C17.664 3.5 18 3.164 18 2.75C18 2.336 17.664 2 17.25 2H3C2.47 2 2 2.47 2 3V17.25C2 17.664 2.336 18 2.75 18C3.164 18 3.5 17.664 3.5 17.25V3.5Z" fill="white"/>
</svg>
