<svg width="60" height="60" viewBox="0 0 60 60" fill="none" xmlns="http://www.w3.org/2000/svg">
<circle cx="30" cy="30" r="30" fill="#D0FCDE"/>
<path fill-rule="evenodd" clip-rule="evenodd" d="M26.4216 31.6773C30.6793 31.6773 34.1309 28.2881 34.1309 24.1098C34.1309 19.9292 30.6793 16.5411 26.4216 16.5411C22.1639 16.5411 18.7124 19.9292 18.7124 24.1098C18.7124 28.2881 22.1639 31.6773 26.4216 31.6773ZM26.4216 33.8395C28.6551 33.8395 30.7124 33.1011 32.371 31.8719C36.774 33.8319 39.6375 39.8675 39.6375 42.487H13.2058C13.2058 39.8438 15.9822 33.8081 20.4668 31.8697C22.1276 33.0989 24.186 33.8395 26.4216 33.8395ZM39.3186 30.5943C37.9735 31.5912 36.3423 32.2359 34.5663 32.3713C36.5236 33.7654 38.0798 35.6779 39.2023 37.5228C39.7544 38.4303 40.2388 39.3837 40.6284 40.3248H45.9795C45.9795 37.9237 43.3547 32.391 39.3186 30.5943ZM33.9727 30.4152C35.062 28.785 35.6956 26.8352 35.6956 24.7405C35.6956 21.5551 34.2317 18.7055 31.9282 16.8049C32.5437 16.6331 33.1934 16.5411 33.865 16.5411C37.7679 16.5411 40.9318 19.6469 40.9318 23.479C40.9318 27.2739 37.8259 30.3587 33.9727 30.4152Z" fill="#1F2D37"/>
</svg>
