<svg width="32" height="38" viewBox="0 0 32 38" fill="none" xmlns="http://www.w3.org/2000/svg">
<path d="M6.14653 20.2105H0V8.84658C0 4.89724 3.18399 1.6842 7.09763 1.6842H28.6316V5.51852H7.09763C5.27914 5.51852 3.79965 7.0115 3.79965 8.84658V16.3762H6.14653V20.2105Z" fill="#EBF2E7"/>
<path d="M24.9124 35.3684H3.36865V31.5342H24.9124C26.7284 31.5342 28.2058 30.0413 28.2058 28.2063V20.6763H25.8267V16.8421H32.0002V28.2063C32.0002 32.1555 28.8207 35.3684 24.9124 35.3684Z" fill="#EBF2E7"/>
<path d="M23.813 15.1579H8.1869C7.38604 15.1579 6.73682 15.8071 6.73682 16.608V20.4447C6.73682 21.2455 7.38604 21.8947 8.1869 21.8947H23.813C24.6139 21.8947 25.2631 21.2455 25.2631 20.4447V16.608C25.2631 15.8071 24.6139 15.1579 23.813 15.1579Z" fill="#6AD38B"/>
<path d="M4.21053 37.0526C6.53594 37.0526 8.42105 35.1675 8.42105 32.8421C8.42105 30.5167 6.53594 28.6316 4.21053 28.6316C1.88512 28.6316 0 30.5167 0 32.8421C0 35.1675 1.88512 37.0526 4.21053 37.0526Z" fill="#EBF2E7"/>
<path d="M27.7896 8.42105C30.115 8.42105 32.0002 6.53594 32.0002 4.21053C32.0002 1.88512 30.115 0 27.7896 0C25.4642 0 23.5791 1.88512 23.5791 4.21053C23.5791 6.53594 25.4642 8.42105 27.7896 8.42105Z" fill="#EBF2E7"/>
</svg>
