<svg width="60" height="60" viewBox="0 0 60 60" fill="none" xmlns="http://www.w3.org/2000/svg">
<circle cx="30" cy="30" r="30" fill="#D0FCDE"/>
<g clip-path="url(#clip0_443_6805)">
<path d="M38.75 23.7513C38.75 28.5825 34.8325 32.5013 30 32.5013C25.1675 32.5013 21.25 28.5825 21.25 23.7513C21.25 18.9175 25.1675 15 30 15C34.8325 15 38.75 18.9175 38.75 23.7513ZM36.7525 32.7262C34.87 34.1475 32.535 35.0012 30 35.0012C27.4625 35.0012 25.1263 34.145 23.2413 32.7237C18.1512 34.965 15 41.9438 15 45H45C45 41.9713 41.75 34.9925 36.7525 32.7262Z" fill="#1F2D37"/>
</g>
<defs>
<clipPath id="clip0_443_6805">
<rect width="30" height="30" fill="white" transform="translate(15 15)"/>
</clipPath>
</defs>
</svg>
