<svg width="60" height="60" viewBox="0 0 60 60" fill="none" xmlns="http://www.w3.org/2000/svg">
<circle cx="30" cy="30" r="30" fill="#D0FCDE"/>
<path d="M43.5172 24.1934C43.5172 23.5407 42.9997 22.8279 42.1517 22.8279H24.3992C23.5526 22.8279 23.0337 23.5366 23.0337 24.1934V41.9459C23.0337 42.7939 23.7438 43.3114 24.3992 43.3114H42.1517C42.8044 43.3114 43.5172 42.7939 43.5172 41.9459V24.1934ZM21.6681 21.4623H39.7619C40.3273 21.4623 40.7861 21.0035 40.7861 20.4381C40.7861 19.8728 40.3273 19.4139 39.7619 19.4139H20.9853C20.2616 19.4139 19.6197 20.0557 19.6197 20.7795V39.5561C19.6197 40.1215 20.0786 40.5803 20.6439 40.5803C21.2093 40.5803 21.6681 40.1215 21.6681 39.5561V21.4623ZM18.2542 18.0484H37.0308C37.5961 18.0484 38.055 17.5895 38.055 17.0242C38.055 16.4588 37.5961 16 37.0308 16H17.5714C16.8476 16 16.2058 16.6418 16.2058 17.3656V36.825C16.2058 37.3903 16.6646 37.8491 17.23 37.8491C17.7953 37.8491 18.2542 37.3903 18.2542 36.825V18.0484Z" fill="#1F2D37"/>
</svg>
