<svg width="56" height="61" viewBox="0 0 56 61" fill="none" xmlns="http://www.w3.org/2000/svg">
<path d="M37.2252 25.2331C37.2252 22.7559 36.2533 20.3801 34.5232 18.6284C32.7932 16.8767 30.4467 15.8926 28 15.8926C25.5533 15.8926 23.2069 16.8767 21.4768 18.6284C19.7467 20.3801 18.7748 22.7559 18.7748 25.2331C18.7748 36.1304 14.1622 39.2439 14.1622 39.2439H41.8378C41.8378 39.2439 37.2252 36.1304 37.2252 25.2331Z" stroke="#424B5A" stroke-width="3.54808" stroke-linecap="round" stroke-linejoin="round"/>
<path d="M30.5946 44.4316C30.3309 44.9577 29.9524 45.3944 29.4971 45.698C29.0417 46.0016 28.5255 46.1614 28 46.1614C27.4745 46.1614 26.9582 46.0016 26.5029 45.698C26.0475 45.3944 25.6691 44.9577 25.4054 44.4316" stroke="#424B5A" stroke-width="3.54808" stroke-linecap="round" stroke-linejoin="round"/>
<ellipse cx="37.5135" cy="14.1622" rx="2.16216" ry="2.16216" fill="#6F7D95"/>
</svg>
