<svg width="24" height="19" viewBox="0 0 24 19" fill="none" xmlns="http://www.w3.org/2000/svg">
<path fill-rule="evenodd" clip-rule="evenodd" d="M9.67788 11.0841C12.7958 11.0841 15.3233 8.60225 15.3233 5.54246C15.3233 2.48108 12.7958 0 9.67788 0C6.55999 0 4.03245 2.48108 4.03245 5.54246C4.03245 8.60225 6.55999 11.0841 9.67788 11.0841ZM9.67788 12.6675C11.3134 12.6675 12.82 12.1268 14.0345 11.2266C17.2589 12.6619 19.3558 17.0818 19.3558 19H0C0 17.0644 2.03316 12.6445 5.31719 11.225C6.53337 12.1252 8.0407 12.6675 9.67788 12.6675ZM19.1222 10.2911C18.1372 11.0211 16.9427 11.4932 15.6422 11.5923C17.0754 12.6132 18.2151 14.0137 19.0371 15.3648C19.4414 16.0293 19.7961 16.7274 20.0814 17.4167H24C24 15.6583 22.0779 11.6068 19.1222 10.2911ZM15.2075 10.1599C16.0052 8.96611 16.4692 7.53828 16.4692 6.00433C16.4692 3.67167 15.3971 1.58498 13.7103 0.193149C14.161 0.0673421 14.6368 0 15.1286 0C17.9867 0 20.3036 2.27433 20.3036 5.08059C20.3036 7.85956 18.0292 10.1185 15.2075 10.1599Z" fill="white"/>
</svg>
