<svg width="100" height="100" viewBox="0 0 100 100" fill="none" xmlns="http://www.w3.org/2000/svg">
<rect width="100" height="100" rx="20" fill="#1F2D37"/>
<g clip-path="url(#clip0_1427_6174)">
<path d="M65.3978 40.7318H37.6031C35.3673 40.7318 33.5549 42.545 33.5549 44.7818V54.2174C33.5549 56.4542 35.3673 58.2674 37.6031 58.2674H65.3978C67.6335 58.2674 69.4459 56.4542 69.4459 54.2174V44.7818C69.4459 42.545 67.6335 40.7318 65.3978 40.7318Z" fill="#6AD38B"/>
<path d="M21.0343 90C26.5659 90 31.0501 85.5137 31.0501 79.9796C31.0501 74.4455 26.5659 69.9593 21.0343 69.9593C15.5028 69.9593 11.0186 74.4455 11.0186 79.9796C11.0186 85.5137 15.5028 90 21.0343 90Z" fill="#EBF2E7"/>
<path d="M79.0545 85.8437H21.8694V74.1155H79.0545C79.7292 74.1155 80.2774 73.5671 80.2774 72.8921V55.7631H71.9491V43.2377H92.0001V72.8921C92.0001 80.0336 86.1927 85.8437 79.0545 85.8437Z" fill="#EBF2E7"/>
<path d="M81.9657 29.0407C87.4973 29.0407 91.9815 24.5545 91.9815 19.0204C91.9815 13.4863 87.4973 9 81.9657 9C76.4342 9 71.95 13.4863 71.95 19.0204C71.95 24.5545 76.4342 29.0407 81.9657 29.0407Z" fill="#EBF2E7"/>
<path d="M31.051 55.7631H11V26.1079C11 18.9664 16.8074 13.1563 23.9456 13.1563H81.1307V24.8844H23.9456C23.2709 24.8844 22.7228 25.4329 22.7228 26.1079V43.2368H31.051V55.7623V55.7631Z" fill="#EBF2E7"/>
</g>
<defs>
<clipPath id="clip0_1427_6174">
<rect width="81" height="81" fill="white" transform="translate(11 9)"/>
</clipPath>
</defs>
</svg>
