<svg width="42" height="34" viewBox="0 0 42 34" fill="none" xmlns="http://www.w3.org/2000/svg">
<g id="Group" opacity="0.3">
<path id="Vector" d="M2.836 33.5C2.08282 33.4971 1.3615 33.2007 0.829966 32.6758C0.298432 32.1508 -5.75749e-06 31.4401 0 30.6991V6.34837C0.0217865 5.73372 0.290307 5.15261 0.746748 4.73232C1.20319 4.31204 1.81034 4.08683 2.43523 4.10604H4.76191C5.21971 4.115 5.67091 3.99767 6.06442 3.76734C6.45792 3.53701 6.778 3.20289 6.9884 2.80281L7.48658 1.80348C7.69593 1.40551 8.01383 1.07278 8.40464 0.84259C8.79544 0.612401 9.24371 0.493856 9.69916 0.500245H20.7453C21.1604 0.494952 21.5702 0.59249 21.9369 0.783872C22.3036 0.975255 22.6155 1.25433 22.8438 1.5954L23.3865 2.44141C23.6144 2.78226 23.9258 3.06123 24.292 3.25261C24.6582 3.444 25.0675 3.54164 25.4822 3.53656H39.5648C40.1903 3.51663 40.7983 3.74196 41.255 4.16298C41.7117 4.58401 41.9797 5.16625 42 5.78163V30.6964C42 31.4392 41.7 32.1516 41.1661 32.6769C40.6322 33.2022 39.908 33.4973 39.1529 33.4973L2.836 33.5Z" fill="#1F2D37"/>
</g>
</svg>
